# xmcd
#
# Track frame offsets: 
#        150
#        17232
#        35482
#        51295
#        79291
#        95709
#        147453
#
# Disc length: 2386 seconds
#
# Revision: 0
# Processed by: cddbd v1.5.2PL0 Copyright (c) Steve Scherf et al.
# Submitted via: ExactAudioCopy v1.1
#
DISCID=61095007
DTITLE=Little Beaver - Joey
DYEAR=1972
DGENRE=Soul
TTITLE0=Joey
TTITLE1=Give A Helping Hand
TTITLE2=I'm Losin' The Feelin
TTITLE3=What The Blues Is
TTITLE4=That's How It Is
TTITLE5=Katie Pearl
TTITLE6=Two Steps From The Blues
EXTD=
EXTT0=
EXTT1=
EXTT2=
EXTT3=
EXTT4=
EXTT5=
EXTT6=
PLAYORDER=
